<svg width="60" height="60" viewBox="0 0 60 60" fill="none" xmlns="http://www.w3.org/2000/svg">
<path d="M18 18C16.346 18 15 19.346 15 21C15 21.06 15.006 21.12 15.017 21.179L16.718 30.537C16.971 31.931 18.16 32.952 19.567 32.998L24 33.83V52.235C23.461 52.096 22.922 51.946 22.4 51.772L21.765 53.668C22.416 53.886 23.089 54.081 23.763 54.247L24 53.288V56.5C24 58.43 25.57 60 27.5 60C28.48 60 29.364 59.593 30 58.942C30.636 59.593 31.52 60 32.5 60C34.43 60 36 58.43 36 56.5V33.834L40.572 32.999C41.88 32.955 43.02 32.059 43.367 30.79L45.965 21.264C45.988 21.177 46 21.089 46 21C46 19.346 44.654 18 43 18C41.397 18 40.084 19.263 40.004 20.846L38.452 26.275C38.331 26.702 37.936 27 37.491 27H33.974C34.609 26.162 35 25.13 35 24C35 21.243 32.757 19 30 19C27.243 19 25 21.243 25 24C25 25.13 25.391 26.162 26.026 27H22.735C22.241 27 21.815 26.631 21.746 26.141L21 20.922C20.957 19.304 19.628 18 18 18ZM27 24C27 22.346 28.346 21 30 21C31.654 21 33 22.346 33 24C33 25.654 31.654 27 30 27C28.346 27 27 25.654 27 24ZM22.734 29H30H37.491C38.824 29 40.01 28.105 40.376 26.824L41.962 21.275C41.987 21.186 42 21.093 42 21C42 20.449 42.448 20 43 20C43.514 20 43.938 20.39 43.994 20.889L41.437 30.264C41.319 30.697 40.923 31 40.473 31C40.412 31 40.353 31.005 40.293 31.016L34.82 32.016C34.345 32.103 34 32.517 34 33V56.5C34 57.327 33.327 58 32.5 58C31.673 58 31 57.327 31 56.5V43H29V56.5C29 57.327 28.327 58 27.5 58C26.673 58 26 57.327 26 56.5V33C26 32.519 25.657 32.106 25.185 32.017L19.854 31.017C19.793 31.006 19.73 31 19.669 31C19.186 31 18.772 30.655 18.685 30.179L17.003 20.925C17.041 20.409 17.474 20 18 20C18.552 20 19 20.449 19 21C19 21.047 19.003 21.095 19.01 21.142L19.765 26.424C19.975 27.893 21.251 29 22.734 29Z" fill="#FA8F2D"/>
<path d="M9 18C13.963 18 18 13.962 18 9C18 4.038 13.963 0 9 0C4.037 0 0 4.038 0 9C0 13.962 4.037 18 9 18ZM9 2C12.859 2 16 5.14 16 9C16 12.86 12.859 16 9 16C5.141 16 2 12.86 2 9C2 5.14 5.141 2 9 2Z" fill="#FA8F2D"/>
<path d="M8 11H12V9H9V5H7V10C7 10.552 7.447 11 8 11Z" fill="#FA8F2D"/>
<path d="M59 10H58V1C58 0.448 57.553 0 57 0H39C38.447 0 38 0.448 38 1V10H37C36.447 10 36 10.448 36 11C36 13.757 38.243 16 41 16H55C57.757 16 60 13.757 60 11C60 10.448 59.553 10 59 10ZM40 2H56V10H40V2ZM55 14H41C39.696 14 38.584 13.164 38.171 12H39H57H57.829C57.416 13.164 56.304 14 55 14Z" fill="#FA8F2D"/>
<path d="M45 5H43V8H45V5Z" fill="#FA8F2D"/>
<path d="M49 4H47V8H49V4Z" fill="#FA8F2D"/>
<path d="M53 5H51V8H53V5Z" fill="#FA8F2D"/>
<path d="M1 60H15C15.553 60 16 59.552 16 59V45C16 44.696 15.862 44.409 15.625 44.219L10.625 40.219C10.447 40.077 10.228 40 10 40H1C0.447 40 0 40.448 0 41V59C0 59.552 0.447 60 1 60ZM2 42H9.649L14 45.48V58H2V42Z" fill="#FA8F2D"/>
<path d="M49 38C42.935 38 38 42.935 38 49C38 52.58 39.727 55.756 42.382 57.766C42.389 57.771 42.391 57.78 42.398 57.785C42.44 57.817 42.485 57.844 42.528 57.875C42.706 58.005 42.885 58.131 43.07 58.25C43.158 58.307 43.248 58.358 43.337 58.412C43.516 58.52 43.695 58.629 43.881 58.728C44.04 58.812 44.203 58.885 44.365 58.961C44.568 59.056 44.772 59.146 44.981 59.228C45.195 59.313 45.41 59.395 45.629 59.466C45.742 59.502 45.857 59.533 45.971 59.565C46.184 59.626 46.398 59.683 46.615 59.731C46.731 59.757 46.847 59.78 46.964 59.802C47.195 59.845 47.427 59.88 47.661 59.909C47.766 59.922 47.869 59.937 47.974 59.947C48.314 59.98 48.655 60 49 60C49.345 60 49.686 59.98 50.026 59.948C50.131 59.938 50.235 59.923 50.339 59.91C50.573 59.881 50.806 59.847 51.036 59.803C51.153 59.781 51.269 59.757 51.385 59.732C51.602 59.684 51.816 59.627 52.029 59.566C52.143 59.533 52.258 59.503 52.371 59.467C52.59 59.396 52.805 59.314 53.019 59.229C53.228 59.147 53.432 59.056 53.635 58.962C53.797 58.886 53.96 58.813 54.119 58.729C54.305 58.631 54.483 58.522 54.663 58.413C54.752 58.359 54.842 58.307 54.93 58.251C55.115 58.132 55.295 58.005 55.472 57.876C55.515 57.845 55.56 57.818 55.602 57.786C55.609 57.781 55.611 57.772 55.618 57.767C58.273 55.756 60 52.58 60 49C60 42.935 55.065 38 49 38ZM44 56.471V54C44 51.794 45.794 50 48 50H50C52.206 50 54 51.794 54 54V56.471C53.628 56.721 53.24 56.94 52.839 57.128C52.838 57.128 52.837 57.129 52.836 57.129C50.429 58.255 47.57 58.255 45.163 57.129C45.162 57.129 45.161 57.128 45.16 57.128C44.76 56.94 44.372 56.721 44 56.471ZM49 48C47.897 48 47 47.103 47 46C47 44.897 47.897 44 49 44C50.103 44 51 44.897 51 46C51 47.103 50.103 48 49 48ZM56 54.644V54C56 51.457 54.408 49.284 52.17 48.412C52.683 47.74 53 46.91 53 46C53 43.794 51.206 42 49 42C46.794 42 45 43.794 45 46C45 46.91 45.317 47.74 45.83 48.412C43.592 49.284 42 51.457 42 54V54.644C40.752 53.099 40 51.136 40 49C40 44.038 44.037 40 49 40C53.963 40 58 44.038 58 49C58 51.137 57.248 53.099 56 54.644Z" fill="#FA8F2D"/>
<path d="M11 45H4V47H11V45Z" fill="#FA8F2D"/>
<path d="M12 49H4V51H12V49Z" fill="#FA8F2D"/>
<path d="M12 53H4V55H12V53Z" fill="#FA8F2D"/>
<path d="M35.786 3.646C35.109 3.492 34.422 3.365 33.742 3.267L33.457 5.246C34.084 5.336 34.719 5.454 35.345 5.596L35.786 3.646Z" fill="#FA8F2D"/>
<path d="M20.314 7.03399L19.505 5.20499C18.876 5.48299 18.247 5.79099 17.639 6.12099L18.59 7.87999C19.153 7.57499 19.733 7.29099 20.314 7.03399Z" fill="#FA8F2D"/>
<path d="M30 5C30.52 5 31.035 5.017 31.547 5.049L31.676 3.053C31.121 3.018 30.562 3 30 3L29.597 3.003L29.628 5.003L30 5Z" fill="#FA8F2D"/>
<path d="M23.936 5.772L23.432 3.836C22.766 4.009 22.097 4.213 21.442 4.441L22.1 6.331C22.704 6.12 23.321 5.933 23.936 5.772Z" fill="#FA8F2D"/>
<path d="M27.712 5.107L27.523 3.116C26.834 3.181 26.141 3.275 25.463 3.394L25.809 5.364C26.435 5.254 27.075 5.168 27.712 5.107Z" fill="#FA8F2D"/>
<path d="M7.60101 37.638C7.37201 37.045 7.16401 36.434 6.98401 35.823L5.06601 36.389C5.26101 37.053 5.48701 37.715 5.73601 38.359L7.60101 37.638Z" fill="#FA8F2D"/>
<path d="M4.159 26.1L6.147 26.321C6.217 25.687 6.314 25.049 6.435 24.424L4.472 24.044C4.341 24.72 4.236 25.412 4.159 26.1Z" fill="#FA8F2D"/>
<path d="M4 29C4 29.419 4.01 29.836 4.029 30.25L6.027 30.157C6.01 29.774 6 29.388 6 29C6 28.745 6.004 28.491 6.012 28.238L4.014 28.172C4.004 28.447 4 28.723 4 29Z" fill="#FA8F2D"/>
<path d="M6.51299 33.962C6.38199 33.335 6.27499 32.698 6.19499 32.069L4.20999 32.322C4.29699 33.003 4.41299 33.693 4.55599 34.372L6.51299 33.962Z" fill="#FA8F2D"/>
<path d="M7.463 20.727L5.586 20.039C5.347 20.69 5.132 21.356 4.948 22.018L6.874 22.554C7.045 21.943 7.242 21.329 7.463 20.727Z" fill="#FA8F2D"/>
<path d="M17.942 52.041C18.555 52.362 19.187 52.662 19.821 52.932L20.604 51.092C20.02 50.843 19.436 50.566 18.87 50.269L17.942 52.041Z" fill="#FA8F2D"/>
<path d="M53.305 34.76L55.246 35.239C55.366 34.754 55.472 34.262 55.564 33.766L53.598 33.4C53.513 33.858 53.415 34.312 53.305 34.76Z" fill="#FA8F2D"/>
<path d="M53.782 25.754C53.868 26.388 53.929 27.03 53.963 27.664L55.961 27.557C55.924 26.87 55.857 26.173 55.765 25.486L53.782 25.754Z" fill="#FA8F2D"/>
<path d="M55.993 29.633L53.993 29.586C53.978 30.217 53.938 30.862 53.872 31.503L55.862 31.707C55.933 31.014 55.977 30.315 55.993 29.633Z" fill="#FA8F2D"/>
<path d="M51.559 18.44C51.839 19.012 52.1 19.602 52.333 20.194L54.194 19.461C53.94 18.818 53.658 18.178 53.353 17.558L51.559 18.44Z" fill="#FA8F2D"/>
<path d="M52.966 22.008C53.15 22.611 53.313 23.236 53.451 23.865L55.404 23.437C55.255 22.755 55.078 22.078 54.88 21.424L52.966 22.008Z" fill="#FA8F2D"/>
</svg>
