<svg width="60" height="60" viewBox="0 0 60 60" fill="none" xmlns="http://www.w3.org/2000/svg">
<path d="M9 31C13.963 31 18 26.514 18 21C18 19.847 17.815 18.744 17.49 17.713C17.489 17.709 17.49 17.704 17.489 17.7C17.475 17.655 17.456 17.612 17.442 17.567C17.375 17.364 17.307 17.163 17.229 16.966C17.226 16.959 17.223 16.952 17.22 16.945C17.07 16.571 16.897 16.213 16.709 15.865C16.65 15.755 16.593 15.645 16.53 15.538C16.458 15.416 16.382 15.299 16.305 15.181C16.225 15.057 16.143 14.934 16.058 14.815C15.983 14.709 15.907 14.606 15.828 14.503C15.729 14.374 15.625 14.25 15.521 14.127C15.447 14.04 15.374 13.951 15.297 13.867C15.133 13.688 14.963 13.517 14.788 13.353C14.707 13.277 14.623 13.207 14.539 13.135C14.404 13.018 14.269 12.902 14.129 12.794C14.031 12.718 13.93 12.647 13.829 12.576C13.71 12.492 13.59 12.41 13.468 12.332C13.359 12.262 13.25 12.194 13.138 12.13C13.011 12.057 12.882 11.99 12.752 11.923C12.644 11.868 12.537 11.809 12.426 11.758C12.201 11.655 11.972 11.561 11.739 11.478C11.64 11.443 11.538 11.415 11.437 11.384C11.277 11.334 11.116 11.286 10.953 11.246C10.846 11.22 10.739 11.197 10.631 11.175C10.457 11.139 10.282 11.11 10.105 11.086C10.012 11.073 9.919 11.059 9.825 11.049C9.553 11.018 9.278 11 9 11C8.691 11 8.385 11.018 8.084 11.052C8.064 11.054 8.044 11.059 8.024 11.062C5.323 11.383 2.988 13.022 1.545 15.403C1.536 15.418 1.528 15.434 1.519 15.449C1.378 15.685 1.244 15.926 1.121 16.176C1.079 16.261 1.041 16.349 1.001 16.436C0.918 16.617 0.836 16.798 0.763 16.985C0.7 17.145 0.645 17.309 0.589 17.473C0.549 17.592 0.507 17.709 0.471 17.83C0.401 18.06 0.343 18.296 0.288 18.533C0.274 18.594 0.259 18.653 0.246 18.714C0.186 18.999 0.139 19.288 0.101 19.581C0.0980001 19.603 0.095 19.624 0.092 19.646C0.053 19.96 0.0289999 20.279 0.0179999 20.602C0.0179999 20.609 0.017 20.615 0.016 20.622C0.016 20.623 0.017 20.624 0.016 20.625C0.013 20.75 0 20.873 0 21C0 26.514 4.037 31 9 31ZM2.519 17.988C2.565 17.859 2.618 17.735 2.669 17.609C2.717 17.492 2.763 17.375 2.816 17.261C2.851 17.186 2.889 17.113 2.926 17.04C3.006 16.881 3.087 16.724 3.175 16.572C3.197 16.535 3.22 16.499 3.242 16.462C3.352 16.28 3.467 16.102 3.589 15.932C3.599 15.919 3.609 15.905 3.618 15.892C3.756 15.703 3.9 15.52 4.052 15.346C4.527 14.803 5.069 14.338 5.663 13.969C5.664 13.968 5.665 13.968 5.666 13.967C5.856 13.849 6.053 13.741 6.253 13.643C6.264 13.638 6.275 13.631 6.287 13.626C6.475 13.535 6.668 13.456 6.863 13.384C6.888 13.375 6.912 13.364 6.937 13.355C7.118 13.291 7.304 13.239 7.491 13.192C7.531 13.182 7.57 13.169 7.61 13.16C7.788 13.119 7.97 13.09 8.153 13.065C8.202 13.058 8.249 13.047 8.298 13.041C8.531 13.014 8.764 13 9 13C9.289 13 9.573 13.026 9.855 13.066C9.924 13.076 9.992 13.09 10.061 13.102C10.29 13.143 10.517 13.194 10.74 13.26C10.79 13.275 10.841 13.288 10.891 13.304C11.455 13.487 11.995 13.746 12.497 14.079C12.506 14.085 12.515 14.092 12.524 14.098C12.771 14.264 13.009 14.447 13.237 14.645C13.248 14.655 13.26 14.665 13.272 14.675C13.741 15.09 14.166 15.573 14.532 16.114C14.54 16.126 14.547 16.138 14.555 16.15C14.736 16.42 14.903 16.703 15.054 17H8.676C8.24 17 7.856 17.282 7.723 17.696C7.124 19.573 5.629 20.833 4 20.833C3.312 20.833 2.644 20.614 2.045 20.195C2.107 19.475 2.255 18.788 2.471 18.139C2.487 18.09 2.501 18.038 2.519 17.988ZM14.522 25.899C13.661 25.566 13 24.378 13 23H11C11 24.925 11.884 26.581 13.164 27.416C11.998 28.406 10.56 29 9 29C5.585 29 2.737 26.188 2.126 22.484C2.724 22.712 3.354 22.833 4 22.833C6.282 22.833 8.363 21.32 9.367 19H15.769C15.914 19.641 15.999 20.308 15.999 21C16 22.846 15.445 24.544 14.522 25.899Z" fill="#FA8F2D"/>
<path d="M55.838 44.083C55.786 43.979 55.717 43.887 55.662 43.785C55.65 43.757 55.653 43.725 55.638 43.698C55.536 43.514 55.411 43.349 55.3 43.172C55.182 42.984 55.07 42.794 54.942 42.615C54.781 42.389 54.603 42.18 54.427 41.969C54.282 41.796 54.143 41.618 53.989 41.455C53.805 41.26 53.605 41.083 53.408 40.903C53.239 40.748 53.076 40.588 52.898 40.445C52.693 40.28 52.475 40.136 52.26 39.986C52.07 39.854 51.885 39.714 51.687 39.594C51.463 39.458 51.226 39.346 50.993 39.227C50.787 39.122 50.587 39.007 50.375 38.915C50.126 38.807 49.866 38.726 49.608 38.636C49.398 38.563 49.194 38.477 48.978 38.416C48.682 38.333 48.377 38.281 48.074 38.223C47.887 38.187 47.705 38.135 47.515 38.108C47.016 38.037 46.511 38 46 38C45.491 38 44.987 38.037 44.491 38.106C44.305 38.132 44.127 38.183 43.944 38.218C43.638 38.276 43.331 38.328 43.033 38.411C42.824 38.47 42.627 38.554 42.423 38.624C42.16 38.715 41.895 38.797 41.64 38.907C41.436 38.995 41.245 39.107 41.047 39.207C40.806 39.329 40.562 39.443 40.331 39.582C40.141 39.697 39.965 39.831 39.782 39.957C39.559 40.11 39.333 40.257 39.122 40.427C38.951 40.564 38.796 40.719 38.633 40.866C38.429 41.05 38.223 41.23 38.033 41.43C37.884 41.587 37.752 41.758 37.612 41.924C37.43 42.139 37.246 42.352 37.08 42.582C36.958 42.752 36.852 42.935 36.739 43.113C36.615 43.308 36.476 43.492 36.364 43.697C36.351 43.72 36.354 43.748 36.343 43.771C36.301 43.849 36.247 43.919 36.206 43.998H36C33.243 43.998 31 46.241 31 48.998C31 51.755 33.243 53.998 36 53.998H36.205C38.076 57.664 41.851 59.998 46 59.998C50.182 59.998 53.98 57.629 55.838 53.915C58.217 53.518 60 51.467 60 49C60 46.533 58.217 44.482 55.838 44.083ZM39.059 43.289C39.137 43.194 39.22 43.104 39.301 43.013C39.488 42.803 39.685 42.604 39.89 42.413C39.982 42.327 40.074 42.241 40.169 42.159C40.409 41.954 40.661 41.764 40.921 41.586C40.986 41.542 41.046 41.491 41.111 41.449C41.436 41.238 41.777 41.05 42.127 40.883C42.225 40.836 42.327 40.799 42.427 40.756C42.689 40.642 42.955 40.539 43.228 40.45C43.357 40.408 43.488 40.371 43.619 40.334C43.885 40.261 44.155 40.201 44.429 40.153C44.552 40.131 44.674 40.105 44.799 40.088C45.194 40.035 45.594 40 46 40C46.406 40 46.807 40.035 47.202 40.089C47.328 40.106 47.451 40.132 47.575 40.154C47.847 40.202 48.116 40.262 48.38 40.334C48.514 40.371 48.647 40.409 48.778 40.452C49.047 40.539 49.309 40.642 49.567 40.754C49.671 40.799 49.778 40.837 49.88 40.886C50.227 41.052 50.564 41.239 50.887 41.448C50.965 41.498 51.037 41.558 51.113 41.611C51.359 41.782 51.599 41.962 51.828 42.157C51.93 42.244 52.028 42.336 52.126 42.428C52.324 42.613 52.514 42.807 52.695 43.009C52.781 43.106 52.869 43.201 52.951 43.301C52.995 43.354 53.031 43.415 53.074 43.469C48.704 44.164 43.296 44.164 38.926 43.469C38.973 43.412 39.012 43.347 39.059 43.289ZM55.128 51.984C54.746 52 54.406 52.234 54.254 52.584C52.822 55.874 49.583 58 46 58C42.425 58 39.188 55.88 37.754 52.6C37.595 52.236 37.235 52 36.838 52H36C34.346 52 33 50.654 33 49C33 47.346 34.346 46 36 46H36.838C37.235 46 37.595 45.765 37.754 45.4C37.77 45.363 37.793 45.331 37.81 45.295C40.309 45.75 43.111 46 46 46C48.889 46 51.691 45.75 54.19 45.295C54.209 45.337 54.235 45.374 54.253 45.416C54.405 45.767 54.745 46 55.127 46.016C56.738 46.085 58 47.396 58 49C58 50.604 56.738 51.915 55.128 51.984Z" fill="#FA8F2D"/>
<path d="M37 48H35V50H37V48Z" fill="#FA8F2D"/>
<path d="M56 48H54V50H56V48Z" fill="#FA8F2D"/>
<path d="M46 54C44.779 54 44 53.408 44 53H42C42 54.682 43.757 56 46 56C48.243 56 50 54.682 50 53H48C48 53.408 47.221 54 46 54Z" fill="#FA8F2D"/>
<path d="M23 36V38C25.206 38 27 36.206 27 34H25C25 35.103 24.103 36 23 36Z" fill="#FA8F2D"/>
<path d="M23 40V42C27.411 42 31 38.411 31 34H29C29 37.309 26.309 40 23 40Z" fill="#FA8F2D"/>
<path d="M23 46C29.617 46 35 40.617 35 34H33C33 39.514 28.514 44 23 44V46Z" fill="#FA8F2D"/>
<path d="M19.7069 29.293L18.2927 30.7072L20.2923 32.7068L21.7065 31.2926L19.7069 29.293Z" fill="#FA8F2D"/>
<path d="M16 31H14V34H16V31Z" fill="#FA8F2D"/>
<path d="M23 25H20V27H23V25Z" fill="#FA8F2D"/>
<path d="M55 0H29C26.243 0 24 2.243 24 5V13C24 15.757 26.243 18 29 18H32.572L29.06 27.658C28.902 28.091 29.061 28.575 29.444 28.831C29.613 28.944 29.808 29 30 29C30.243 29 30.486 28.911 30.676 28.737L42.389 18H55C57.757 18 60 15.757 60 13V5C60 2.243 57.757 0 55 0ZM58 13C58 14.654 56.654 16 55 16H42C41.75 16 41.509 16.094 41.324 16.263L32.336 24.502L34.94 17.342C35.052 17.035 35.006 16.694 34.82 16.426C34.632 16.159 34.326 16 34 16H29C27.346 16 26 14.654 26 13V5C26 3.346 27.346 2 29 2H55C56.654 2 58 3.346 58 5V13Z" fill="#FA8F2D"/>
<path d="M36 8H32V10H36V8Z" fill="#FA8F2D"/>
<path d="M44 8H40V10H44V8Z" fill="#FA8F2D"/>
<path d="M52 8H48V10H52V8Z" fill="#FA8F2D"/>
</svg>
