<svg width="60" height="60" viewBox="0 0 60 60" fill="none" xmlns="http://www.w3.org/2000/svg">
<path d="M53.919 8.067C54.586 7.218 55 6.161 55 5C55 2.243 52.757 0 50 0C47.243 0 45 2.243 45 5C45 6.161 45.414 7.218 46.081 8.067C42.655 8.52 40 11.453 40 15V17C40 17.462 40.113 17.894 40.301 18.285L32.753 25.833C31.962 25.309 31.017 25 30 25C28.983 25 28.038 25.309 27.247 25.833L19.699 18.285C19.887 17.894 20 17.462 20 17V15C20 11.453 17.345 8.52 13.919 8.067C14.586 7.218 15 6.161 15 5C15 2.243 12.757 0 10 0C7.243 0 5 2.243 5 5C5 6.161 5.414 7.218 6.081 8.067C2.655 8.52 0 11.453 0 15V17C0 18.654 1.346 20 3 20C3.352 20 3.686 19.928 4 19.816V23.402C1.491 24.712 0 26.763 0 29C0 31.556 1.976 33.865 5.092 35.088C5.037 35.385 5 35.688 5 36C5 37.161 5.414 38.218 6.081 39.067C2.655 39.52 0 42.453 0 46V48C0 49.654 1.346 51 3 51C3.352 51 3.686 50.928 4 50.816V54.402C1.491 55.712 0 57.763 0 60H2C2 58.791 2.729 57.624 4.007 56.716C4.012 56.805 4.036 56.888 4.048 56.976C4.063 57.082 4.074 57.189 4.098 57.292C4.126 57.412 4.167 57.526 4.207 57.641C4.241 57.737 4.27 57.835 4.311 57.927C4.362 58.04 4.425 58.145 4.487 58.251C4.536 58.335 4.581 58.422 4.637 58.502C4.709 58.605 4.794 58.698 4.877 58.792C4.939 58.863 4.996 58.938 5.063 59.004C5.156 59.094 5.259 59.171 5.362 59.25C5.434 59.306 5.5 59.368 5.576 59.418C5.689 59.493 5.812 59.551 5.933 59.612C6.01 59.651 6.082 59.698 6.162 59.731C6.301 59.789 6.448 59.826 6.595 59.866C6.667 59.885 6.734 59.915 6.808 59.93C7.032 59.975 7.263 60 7.5 60C7.743 60 7.98 59.975 8.209 59.927C8.294 59.909 8.371 59.874 8.454 59.851C8.594 59.811 8.737 59.777 8.869 59.72C8.963 59.68 9.047 59.622 9.137 59.574C9.248 59.515 9.363 59.463 9.466 59.393C9.553 59.334 9.627 59.259 9.709 59.193C9.802 59.116 9.901 59.046 9.986 58.96C9.991 58.955 9.996 58.952 10.001 58.947C10.006 58.952 10.011 58.955 10.016 58.96C10.101 59.046 10.199 59.116 10.293 59.193C10.374 59.26 10.449 59.334 10.536 59.393C10.639 59.463 10.754 59.515 10.865 59.574C10.955 59.622 11.039 59.68 11.133 59.72C11.265 59.776 11.408 59.811 11.548 59.851C11.631 59.875 11.708 59.91 11.793 59.927C12.02 59.975 12.257 60 12.5 60C12.737 60 12.968 59.975 13.192 59.93C13.265 59.915 13.333 59.886 13.404 59.867C13.551 59.827 13.699 59.79 13.838 59.732C13.918 59.699 13.99 59.652 14.066 59.613C14.188 59.552 14.311 59.493 14.424 59.419C14.5 59.369 14.566 59.307 14.638 59.251C14.74 59.171 14.844 59.095 14.937 59.005C15.005 58.939 15.061 58.864 15.123 58.793C15.206 58.698 15.29 58.606 15.363 58.503C15.419 58.423 15.463 58.337 15.512 58.253C15.574 58.146 15.638 58.041 15.689 57.928C15.73 57.836 15.76 57.739 15.793 57.642C15.833 57.527 15.874 57.413 15.902 57.292C15.926 57.189 15.938 57.082 15.952 56.976C15.964 56.889 15.988 56.806 15.993 56.716C17.271 57.624 18 58.791 18 60H20C20 57.763 18.509 55.712 16 54.402V50.816C16.314 50.928 16.648 51 17 51C18.654 51 20 49.654 20 48V46C20 44.688 19.631 43.464 19 42.414L27.247 34.167C28.038 34.691 28.983 35 30 35C31.017 35 31.962 34.691 32.753 34.167L41 42.414C40.37 43.464 40 44.689 40 46V48C40 49.654 41.346 51 43 51C43.352 51 43.686 50.928 44 50.816V54.402C41.491 55.713 40 57.763 40 60H42C42 58.791 42.729 57.624 44.007 56.716C44.012 56.805 44.036 56.888 44.048 56.976C44.063 57.082 44.074 57.189 44.098 57.292C44.126 57.412 44.167 57.526 44.207 57.641C44.241 57.737 44.27 57.835 44.311 57.927C44.362 58.04 44.425 58.145 44.487 58.251C44.536 58.335 44.581 58.422 44.637 58.502C44.709 58.605 44.794 58.698 44.877 58.792C44.939 58.863 44.996 58.938 45.063 59.004C45.156 59.094 45.259 59.171 45.362 59.25C45.434 59.306 45.5 59.368 45.576 59.418C45.689 59.493 45.812 59.551 45.933 59.612C46.01 59.651 46.082 59.698 46.162 59.731C46.301 59.789 46.448 59.826 46.595 59.866C46.667 59.885 46.734 59.915 46.808 59.93C47.032 59.975 47.263 60 47.5 60C48.479 60 49.364 59.597 50 58.947C50.636 59.597 51.521 60 52.5 60C52.737 60 52.968 59.975 53.192 59.93C53.265 59.915 53.333 59.886 53.404 59.867C53.551 59.827 53.699 59.79 53.838 59.732C53.918 59.699 53.99 59.652 54.066 59.613C54.188 59.552 54.311 59.493 54.424 59.419C54.5 59.369 54.566 59.307 54.638 59.251C54.74 59.171 54.844 59.095 54.937 59.005C55.005 58.939 55.061 58.864 55.123 58.793C55.206 58.698 55.29 58.606 55.363 58.503C55.419 58.423 55.463 58.337 55.512 58.253C55.574 58.146 55.638 58.041 55.689 57.928C55.73 57.836 55.76 57.739 55.793 57.642C55.833 57.527 55.874 57.413 55.902 57.292C55.926 57.189 55.938 57.082 55.952 56.976C55.964 56.889 55.988 56.806 55.993 56.716C57.271 57.624 58 58.791 58 60H60C60 57.763 58.509 55.712 56 54.402V50.816C56.314 50.928 56.648 51 57 51C58.654 51 60 49.654 60 48V46C60 42.453 57.345 39.52 53.919 39.067C54.576 38.23 54.984 37.191 54.995 36.05C58.093 34.811 60 32.553 60 30C60 27.763 58.509 25.712 56 24.402V19.816C56.314 19.928 56.648 20 57 20C58.654 20 60 18.654 60 17V15C60 11.453 57.345 8.52 53.919 8.067ZM50 2C51.654 2 53 3.346 53 5C53 6.654 51.654 8 50 8C48.346 8 47 6.654 47 5C47 3.346 48.346 2 50 2ZM44 24.402C41.491 25.713 40 27.763 40 30C40 32.553 41.907 34.811 45.005 36.05C45.017 37.192 45.424 38.23 46.081 39.067C44.62 39.26 43.303 39.904 42.269 40.855L34.166 32.752C34.691 31.962 35 31.017 35 30C35 28.983 34.691 28.038 34.167 27.247L41.715 19.699C42.106 19.887 42.538 20 43 20C43.352 20 43.686 19.928 44 19.816V24.402ZM48.216 33.602C48.273 33.559 48.33 33.516 48.39 33.477C48.493 33.411 48.602 33.355 48.713 33.302C48.769 33.275 48.822 33.245 48.88 33.222C49.005 33.172 49.135 33.135 49.267 33.101C49.319 33.088 49.369 33.068 49.422 33.058C49.609 33.022 49.802 33 50 33C50.198 33 50.391 33.022 50.578 33.058C50.631 33.068 50.681 33.088 50.734 33.101C50.866 33.135 50.997 33.171 51.121 33.221C51.179 33.244 51.233 33.275 51.289 33.301C51.4 33.354 51.509 33.41 51.611 33.476C51.671 33.515 51.728 33.558 51.785 33.601C51.871 33.665 51.953 33.732 52.032 33.805C52.097 33.866 52.159 33.93 52.219 33.996C52.273 34.056 52.324 34.118 52.373 34.182C52.443 34.275 52.511 34.371 52.57 34.472C52.593 34.51 52.612 34.549 52.633 34.588C52.703 34.721 52.769 34.858 52.819 35.004C52.82 35.007 52.82 35.009 52.821 35.012C52.879 35.181 52.923 35.356 52.951 35.539C52.952 35.543 52.955 35.547 52.956 35.551C52.977 35.7 53 35.847 53 36C53 37.654 51.654 39 50 39C48.346 39 47 37.654 47 36C47 35.847 47.023 35.7 47.045 35.553C47.046 35.549 47.049 35.545 47.05 35.541C47.078 35.359 47.122 35.183 47.18 35.015C47.181 35.012 47.182 35.009 47.183 35.006C47.233 34.861 47.298 34.724 47.368 34.591C47.389 34.552 47.409 34.512 47.431 34.474C47.49 34.372 47.558 34.277 47.628 34.184C47.677 34.12 47.728 34.057 47.782 33.998C47.841 33.931 47.904 33.868 47.969 33.807C48.047 33.733 48.13 33.666 48.216 33.602ZM31.414 30L32.699 28.715C32.887 29.106 33 29.538 33 30C33 30.462 32.887 30.894 32.699 31.285L31.414 30ZM30 27C30.462 27 30.894 27.113 31.285 27.301L30 28.586L28.715 27.301C29.106 27.113 29.538 27 30 27ZM27.301 31.285C27.113 30.894 27 30.462 27 30C27 29.538 27.113 29.106 27.301 28.715L28.586 30L27.301 31.285ZM7 36C7 35.593 7.083 35.206 7.23 34.852C7.246 34.814 7.268 34.78 7.285 34.742C7.343 34.617 7.407 34.495 7.482 34.38C7.512 34.334 7.545 34.291 7.576 34.247C7.653 34.141 7.736 34.039 7.826 33.944C7.856 33.912 7.886 33.879 7.917 33.849C8.17 33.604 8.466 33.403 8.792 33.259C8.831 33.242 8.872 33.228 8.913 33.212C9.04 33.162 9.172 33.122 9.306 33.09C9.355 33.078 9.404 33.066 9.454 33.056C9.633 33.022 9.814 33 10 33C10.186 33 10.367 33.022 10.544 33.055C10.594 33.064 10.643 33.077 10.692 33.089C10.827 33.121 10.958 33.162 11.085 33.211C11.125 33.227 11.166 33.241 11.206 33.258C11.532 33.402 11.828 33.603 12.081 33.848C12.112 33.879 12.142 33.911 12.172 33.943C12.262 34.038 12.345 34.14 12.422 34.246C12.454 34.29 12.487 34.333 12.516 34.379C12.59 34.494 12.654 34.615 12.712 34.74C12.73 34.778 12.752 34.812 12.768 34.851C12.917 35.206 13 35.593 13 36C13 37.654 11.654 39 10 39C8.346 39 7 37.654 7 36ZM15 36C15 35.688 14.963 35.385 14.908 35.088C18.024 33.865 20 31.556 20 29C20 26.763 18.509 24.712 16 23.402V19.816C16.314 19.928 16.648 20 17 20C17.462 20 17.894 19.887 18.285 19.699L25.833 27.247C25.309 28.038 25 28.983 25 30C25 31.017 25.309 31.962 25.833 32.753L17.73 40.856C16.696 39.905 15.379 39.261 13.918 39.068C14.586 38.218 15 37.161 15 36ZM10 2C11.654 2 13 3.346 13 5C13 6.654 11.654 8 10 8C8.346 8 7 6.654 7 5C7 3.346 8.346 2 10 2ZM3 18C2.448 18 2 17.552 2 17V15C2 12.243 4.243 10 7 10H13C15.757 10 18 12.243 18 15V17C18 17.552 17.552 18 17 18C16.448 18 16 17.552 16 17V13H14V17V24.012V25.5C14 26.327 13.327 27 12.5 27C11.673 27 11 26.327 11 25.5V19V18H9V19V25.5C9 26.327 8.327 27 7.5 27C6.673 27 6 26.327 6 25.5V24.012V17V13H4V17C4 17.552 3.552 18 3 18ZM5.827 33.246C3.478 32.333 2 30.72 2 29C2 27.791 2.729 26.624 4.007 25.716C4.012 25.805 4.036 25.888 4.048 25.976C4.063 26.082 4.074 26.189 4.098 26.292C4.126 26.412 4.167 26.526 4.207 26.641C4.241 26.737 4.27 26.835 4.311 26.927C4.362 27.04 4.425 27.145 4.487 27.251C4.536 27.335 4.581 27.422 4.637 27.502C4.709 27.605 4.794 27.698 4.877 27.792C4.939 27.863 4.996 27.938 5.063 28.004C5.156 28.094 5.259 28.171 5.362 28.25C5.434 28.306 5.5 28.368 5.576 28.418C5.689 28.493 5.812 28.551 5.933 28.612C6.01 28.651 6.082 28.698 6.162 28.731C6.301 28.789 6.448 28.826 6.595 28.866C6.667 28.885 6.734 28.915 6.808 28.93C7.032 28.975 7.263 29 7.5 29C7.743 29 7.98 28.975 8.209 28.927C8.294 28.909 8.371 28.874 8.454 28.851C8.594 28.811 8.737 28.777 8.869 28.72C8.963 28.68 9.047 28.622 9.137 28.574C9.248 28.515 9.363 28.463 9.466 28.393C9.553 28.334 9.627 28.259 9.709 28.193C9.802 28.116 9.901 28.046 9.986 27.96C9.991 27.955 9.996 27.952 10.001 27.947C10.006 27.952 10.011 27.955 10.016 27.96C10.101 28.046 10.199 28.116 10.293 28.193C10.374 28.26 10.449 28.334 10.536 28.393C10.639 28.463 10.754 28.515 10.865 28.574C10.955 28.622 11.039 28.68 11.133 28.72C11.265 28.776 11.408 28.811 11.548 28.851C11.631 28.875 11.708 28.91 11.793 28.927C12.02 28.975 12.257 29 12.5 29C12.737 29 12.968 28.975 13.192 28.93C13.265 28.915 13.333 28.886 13.404 28.867C13.551 28.827 13.699 28.79 13.838 28.732C13.918 28.699 13.99 28.652 14.066 28.613C14.188 28.552 14.311 28.493 14.424 28.419C14.5 28.369 14.566 28.307 14.638 28.251C14.74 28.171 14.844 28.095 14.937 28.005C15.005 27.939 15.061 27.864 15.123 27.793C15.206 27.698 15.29 27.606 15.363 27.503C15.419 27.423 15.463 27.337 15.512 27.253C15.574 27.146 15.638 27.041 15.689 26.928C15.73 26.836 15.76 26.739 15.793 26.642C15.833 26.527 15.874 26.413 15.902 26.292C15.926 26.189 15.938 26.082 15.952 25.976C15.964 25.889 15.988 25.806 15.993 25.716C17.271 26.624 18 27.791 18 29C18 30.72 16.522 32.333 14.173 33.246C14.166 33.235 14.157 33.226 14.15 33.215C14.143 33.204 14.134 33.194 14.126 33.183C13.962 32.942 13.776 32.722 13.575 32.516C13.55 32.49 13.526 32.463 13.5 32.438C13.286 32.227 13.056 32.035 12.808 31.867C12.792 31.856 12.774 31.847 12.757 31.836C12.517 31.677 12.265 31.54 12 31.425C11.971 31.412 11.944 31.397 11.915 31.385C11.647 31.274 11.367 31.188 11.079 31.125C11.021 31.112 10.963 31.103 10.905 31.092C10.61 31.037 10.309 31 10 31C9.691 31 9.39 31.037 9.094 31.092C9.036 31.103 8.978 31.112 8.92 31.125C8.632 31.188 8.353 31.274 8.084 31.385C8.055 31.397 8.028 31.412 7.999 31.425C7.735 31.54 7.482 31.678 7.242 31.836C7.225 31.847 7.208 31.856 7.191 31.867C6.944 32.035 6.713 32.227 6.499 32.438C6.473 32.463 6.449 32.49 6.424 32.516C6.224 32.722 6.037 32.942 5.873 33.183C5.865 33.194 5.857 33.204 5.849 33.215C5.843 33.226 5.834 33.235 5.827 33.246ZM18 48C18 48.552 17.552 49 17 49C16.448 49 16 48.552 16 48V44H14V48V55.012V56.5C14 57.327 13.327 58 12.5 58C11.673 58 11 57.327 11 56.5V50V49H9V50V56.5C9 57.327 8.327 58 7.5 58C6.673 58 6 57.327 6 56.5V55.012V48V44H4V48C4 48.552 3.552 49 3 49C2.448 49 2 48.552 2 48V46C2 43.243 4.243 41 7 41H13C14.273 41 15.423 41.493 16.307 42.279L16.293 42.293L16.854 42.854C17.559 43.716 18 44.802 18 46V48ZM30 33C29.538 33 29.106 32.887 28.715 32.699L30 31.414L31.285 32.699C30.894 32.887 30.462 33 30 33ZM58 46V48C58 48.552 57.552 49 57 49C56.448 49 56 48.552 56 48V44H54V48V55.012V56.5C54 57.327 53.327 58 52.5 58C51.673 58 51 57.327 51 56.5V49H49V56.5C49 57.327 48.327 58 47.5 58C46.673 58 46 57.327 46 56.5V55.012V48V44H44V48C44 48.552 43.552 49 43 49C42.448 49 42 48.552 42 48V46C42 43.243 44.243 41 47 41H53C55.757 41 58 43.243 58 46ZM58 30C58 31.595 56.698 33.121 54.608 34.06C54.566 33.961 54.504 33.875 54.457 33.78C54.378 33.62 54.297 33.462 54.203 33.313C54.149 33.229 54.09 33.149 54.031 33.068C53.903 32.89 53.764 32.722 53.614 32.563C53.569 32.516 53.526 32.467 53.479 32.421C53.052 32.003 52.553 31.665 52 31.424C51.947 31.401 51.891 31.382 51.837 31.36C51.613 31.271 51.381 31.2 51.142 31.144C51.067 31.126 50.993 31.107 50.916 31.093C50.618 31.038 50.314 31 50 31C49.686 31 49.382 31.038 49.083 31.093C49.006 31.107 48.932 31.127 48.857 31.144C48.618 31.2 48.387 31.272 48.163 31.36C48.109 31.382 48.053 31.4 48 31.424C47.447 31.665 46.948 32.003 46.521 32.421C46.474 32.467 46.431 32.516 46.386 32.563C46.236 32.722 46.098 32.889 45.97 33.067C45.911 33.148 45.852 33.228 45.797 33.312C45.703 33.461 45.622 33.619 45.543 33.779C45.495 33.874 45.433 33.961 45.392 34.059C43.302 33.121 42 31.595 42 30C42 28.738 42.793 27.523 44.177 26.599C44.195 26.653 44.222 26.702 44.243 26.755C44.27 26.824 44.298 26.891 44.329 26.958C44.39 27.089 44.459 27.215 44.535 27.337C44.569 27.392 44.599 27.448 44.636 27.501C44.754 27.669 44.882 27.829 45.026 27.974C45.03 27.978 45.036 27.982 45.04 27.986C45.181 28.126 45.336 28.251 45.499 28.365C45.552 28.402 45.608 28.433 45.663 28.467C45.785 28.543 45.91 28.612 46.041 28.673C46.107 28.704 46.174 28.732 46.242 28.758C46.378 28.811 46.517 28.853 46.66 28.888C46.725 28.904 46.787 28.923 46.854 28.936C47.064 28.974 47.279 29 47.5 29C47.743 29 47.98 28.975 48.209 28.927C48.294 28.909 48.371 28.874 48.454 28.851C48.594 28.811 48.737 28.777 48.869 28.72C48.963 28.68 49.047 28.622 49.137 28.574C49.248 28.515 49.363 28.463 49.466 28.393C49.553 28.334 49.627 28.259 49.709 28.193C49.802 28.116 49.901 28.046 49.986 27.96C49.991 27.955 49.996 27.952 50.001 27.947C50.006 27.952 50.011 27.955 50.016 27.96C50.101 28.046 50.199 28.116 50.293 28.193C50.374 28.26 50.449 28.334 50.536 28.393C50.639 28.463 50.754 28.515 50.865 28.574C50.955 28.622 51.039 28.68 51.133 28.72C51.265 28.776 51.408 28.811 51.548 28.851C51.631 28.875 51.708 28.91 51.793 28.927C52.02 28.975 52.257 29 52.5 29C52.721 29 52.936 28.974 53.146 28.935C53.212 28.923 53.275 28.903 53.339 28.887C53.482 28.851 53.622 28.809 53.758 28.757C53.826 28.731 53.893 28.702 53.959 28.672C54.09 28.611 54.215 28.542 54.337 28.466C54.392 28.432 54.448 28.401 54.501 28.364C54.664 28.25 54.819 28.125 54.96 27.985C54.964 27.981 54.97 27.977 54.974 27.973C55.119 27.828 55.247 27.668 55.364 27.5C55.401 27.448 55.431 27.392 55.465 27.337C55.541 27.215 55.61 27.09 55.671 26.958C55.702 26.891 55.73 26.824 55.757 26.755C55.777 26.702 55.805 26.653 55.823 26.599C57.207 27.523 58 28.738 58 30ZM58 17C58 17.552 57.552 18 57 18C56.448 18 56 17.552 56 17V13H54V17V25.012V25.5C54 26.327 53.327 27 52.5 27C51.673 27 51 26.327 51 25.5V19V18H49V19V25.5C49 26.327 48.327 27 47.5 27C46.673 27 46 26.327 46 25.5V25.012V17V13H44V17C44 17.552 43.552 18 43 18C42.448 18 42 17.552 42 17V15C42 12.243 44.243 10 47 10H53C55.757 10 58 12.243 58 15V17Z" fill="#FA8F2D"/>
</svg>
