<svg width="60" height="60" viewBox="0 0 60 60" fill="none" xmlns="http://www.w3.org/2000/svg">
<path d="M59 0H41C40.596 0 40.231 0.243 40.076 0.617C39.921 0.991 40.007 1.421 40.293 1.707L43.586 5L27.293 21.293C26.902 21.684 26.902 22.316 27.293 22.707L37.293 32.707C37.488 32.902 37.744 33 38 33C38.256 33 38.512 32.902 38.707 32.707L55 16.414L58.293 19.707C58.578 19.993 59.007 20.079 59.383 19.924C59.756 19.77 60 19.404 60 19V1C60 0.447 59.552 0 59 0ZM58 16.586L55.707 14.293C55.316 13.902 54.684 13.902 54.293 14.293L38 30.586L29.414 22L45.707 5.707C46.098 5.316 46.098 4.684 45.707 4.293L43.414 2H58V16.586Z" fill="#FA8F2D"/>
<path d="M21.606 34.293C21.419 34.105 21.165 34 20.899 34H15.1C14.835 34 14.58 34.105 14.393 34.293L10.292 38.394C10.105 38.581 10 38.835 10 39.101V44.9C10 45.166 10.105 45.42 10.293 45.607L14.394 49.708C14.581 49.895 14.835 50 15.101 50H20.9C21.165 50 21.42 49.895 21.607 49.707L25.708 45.606C25.895 45.419 26 45.165 26 44.899V39.1C26 38.834 25.895 38.58 25.707 38.393L21.606 34.293ZM24 44.485L20.485 48H15.514L12 44.485V39.514L15.515 36H20.486L24 39.515V44.485Z" fill="#FA8F2D"/>
<path d="M35 37H31.072C30.981 36.765 30.882 36.529 30.777 36.295L33.556 33.515C33.947 33.124 33.947 32.492 33.556 32.101L27.899 26.444C27.524 26.069 26.86 26.069 26.485 26.444L23.706 29.223C23.471 29.118 23.235 29.019 23 28.928V25C23 24.447 22.552 24 22 24H14C13.448 24 13 24.447 13 25V28.928C12.765 29.019 12.529 29.117 12.294 29.223L9.515 26.444C9.14 26.069 8.476 26.069 8.101 26.444L2.444 32.101C2.053 32.492 2.053 33.124 2.444 33.515L5.223 36.295C5.118 36.529 5.019 36.765 4.928 37H1C0.448 37 0 37.447 0 38V46C0 46.553 0.448 47 1 47H4.928C5.019 47.235 5.118 47.471 5.223 47.705L2.444 50.485C2.053 50.876 2.053 51.508 2.444 51.899L8.101 57.556C8.476 57.931 9.14 57.931 9.515 57.556L12.294 54.777C12.529 54.882 12.765 54.981 13 55.072V59C13 59.553 13.448 60 14 60H22C22.552 60 23 59.553 23 59V55.072C23.235 54.981 23.471 54.883 23.706 54.777L26.485 57.556C26.86 57.931 27.524 57.931 27.899 57.556L33.556 51.899C33.947 51.508 33.947 50.876 33.556 50.485L30.777 47.705C30.882 47.471 30.981 47.235 31.072 47H35C35.552 47 36 46.553 36 46V38C36 37.447 35.552 37 35 37ZM34 45H30.366C29.932 45 29.548 45.279 29.414 45.692C29.225 46.279 28.977 46.872 28.678 47.455C28.48 47.841 28.553 48.311 28.861 48.618L31.435 51.192L27.192 55.435L24.618 52.861C24.312 52.553 23.842 52.478 23.455 52.678C22.869 52.978 22.276 53.226 21.692 53.413C21.28 53.548 21 53.933 21 54.366V58H15V54.366C15 53.932 14.72 53.548 14.307 53.414C13.723 53.226 13.13 52.978 12.544 52.679C12.156 52.479 11.687 52.554 11.381 52.862L8.807 55.436L4.564 51.193L7.138 48.619C7.445 48.312 7.519 47.842 7.321 47.456C7.022 46.873 6.775 46.28 6.585 45.693C6.452 45.279 6.067 45 5.634 45H2V39H5.634C6.068 39 6.452 38.721 6.586 38.308C6.775 37.721 7.023 37.128 7.322 36.545C7.52 36.159 7.447 35.689 7.139 35.382L4.565 32.808L8.808 28.565L11.382 31.139C11.688 31.446 12.157 31.52 12.545 31.322C13.131 31.022 13.724 30.774 14.308 30.587C14.72 30.452 15 30.067 15 29.634V26H21V29.634C21 30.068 21.28 30.452 21.693 30.586C22.277 30.774 22.87 31.022 23.456 31.321C23.843 31.519 24.313 31.445 24.619 31.138L27.193 28.564L31.436 32.807L28.862 35.381C28.555 35.688 28.481 36.158 28.679 36.544C28.978 37.127 29.225 37.72 29.415 38.307C29.548 38.721 29.933 39 30.366 39H34V45Z" fill="#FA8F2D"/>
<path d="M42.292 48.293L40.2924 50.2927L41.7066 51.7069L43.7062 49.7072L42.292 48.293Z" fill="#FA8F2D"/>
<path d="M38.292 52.293L36.2924 54.2927L37.7066 55.7069L39.7062 53.7072L38.292 52.293Z" fill="#FA8F2D"/>
<path d="M34.292 56.2929L32.2924 58.2925L33.7066 59.7067L35.7062 57.7071L34.292 56.2929Z" fill="#FA8F2D"/>
<path d="M59 32H52V34H56.586L44.293 46.293L45.707 47.707L58 35.414V40H60V33C60 32.447 59.552 32 59 32Z" fill="#FA8F2D"/>
<path d="M10.2925 16.293L8.29285 18.2927L9.70705 19.7069L11.7067 17.7072L10.2925 16.293Z" fill="#FA8F2D"/>
<path d="M6.29253 20.293L4.29285 22.2927L5.70705 23.7069L7.70673 21.7072L6.29253 20.293Z" fill="#FA8F2D"/>
<path d="M2.29253 24.2929L0.292847 26.2925L1.70705 27.7067L3.70673 25.7071L2.29253 24.2929Z" fill="#FA8F2D"/>
<path d="M28 8V1C28 0.447 27.552 0 27 0H20V2H24.586L12.293 14.293L13.707 15.707L26 3.414V8H28Z" fill="#FA8F2D"/>
</svg>
