<svg width="1015" height="98" viewBox="0 0 1015 98" version="1.1" xmlns="http://www.w3.org/2000/svg" xmlns:xlink="http://www.w3.org/1999/xlink">
<title>Group</title>
<desc>Created using Figma</desc>
<g id="Canvas" transform="translate(-2703 -5239)">
<g id="Group">
<g id="Vector">
<use xlink:href="#path0_fill" transform="translate(3180 5257)"/>
</g>
<g id="degermark">
<use xlink:href="#path1_fill" transform="translate(2698 5224)"/>
</g>
<g id="consulting">
<use xlink:href="#path2_fill" transform="translate(3249 5223)"/>
</g>
</g>
</g>
<defs>
<path id="path0_fill" fill-rule="evenodd" d="M 31 62C 48.1208 62 62 48.1208 62 31C 62 13.8792 48.1208 0 31 0C 13.8792 0 0 13.8792 0 31C 0 48.1208 13.8792 62 31 62ZM 35.0343 30.9997L 21.2741 16.8451C 20.1422 15.6808 20.1422 13.8272 21.2741 12.6628L 24.1591 9.69514C 25.3371 8.48333 27.2832 8.48333 28.4612 9.69514L 48.4946 30.3026C 48.8719 30.6907 48.8719 31.3086 48.4946 31.6967L 28.4612 52.3042C 27.2832 53.516 25.3372 53.516 24.1591 52.3042L 21.2741 49.3365C 20.1422 48.1722 20.1422 46.3186 21.2741 45.1542L 35.0343 30.9997Z"/>
<path id="path1_fill" d="M 39.9375 82.1094L 39.5625 82.1094C 38.875 83.1719 38.0625 84.1875 37.125 85.1562C 36.2188 86.0938 35.1562 86.9219 33.9375 87.6406C 32.75 88.3594 31.4062 88.9219 29.9062 89.3281C 28.4062 89.7344 26.7188 89.9375 24.8438 89.9375C 21.9375 89.9375 19.2812 89.375 16.875 88.25C 14.4688 87.125 12.4062 85.4531 10.6875 83.2344C 8.96875 80.9844 7.64062 78.2031 6.70312 74.8906C 5.76562 71.5781 5.29688 67.7344 5.29688 63.3594C 5.29688 58.9531 5.76562 55.0938 6.70312 51.7812C 7.64062 48.4375 8.96875 45.6406 10.6875 43.3906C 12.4062 41.1406 14.4688 39.4531 16.875 38.3281C 19.2812 37.1719 21.9375 36.5938 24.8438 36.5938C 26.6875 36.5938 28.3594 36.7969 29.8594 37.2031C 31.3594 37.6094 32.7031 38.1562 33.8906 38.8438C 35.1094 39.5312 36.1875 40.3281 37.125 41.2344C 38.0625 42.1406 38.875 43.0938 39.5625 44.0938L 40.125 44.0938C 40.0312 43.0312 39.9375 42.0156 39.8438 41.0469C 39.7812 40.2344 39.7188 39.4062 39.6562 38.5625C 39.5938 37.6875 39.5625 37 39.5625 36.5L 39.5625 16.0625L 48.0938 16.0625L 48.0938 89L 41.2031 89L 39.9375 82.1094ZM 26.4844 82.8594C 28.8594 82.8594 30.8594 82.5 32.4844 81.7812C 34.1406 81.0625 35.4688 79.9688 36.4688 78.5C 37.5 77.0312 38.25 75.2031 38.7188 73.0156C 39.2188 70.7969 39.5 68.2188 39.5625 65.2812L 39.5625 63.3594C 39.5625 60.2031 39.3438 57.4062 38.9062 54.9688C 38.5 52.5 37.7812 50.4375 36.75 48.7812C 35.75 47.0938 34.4062 45.8281 32.7188 44.9844C 31.0312 44.1094 28.9219 43.6719 26.3906 43.6719C 22.1719 43.6719 19.0625 45.375 17.0625 48.7812C 15.0938 52.1875 14.1094 57.0781 14.1094 63.4531C 14.1094 69.9844 15.0938 74.8594 17.0625 78.0781C 19.0625 81.2656 22.2031 82.8594 26.4844 82.8594ZM 84.75 89.9375C 81.3125 89.9375 78.1719 89.3594 75.3281 88.2031C 72.4844 87.0469 70.0312 85.3594 67.9688 83.1406C 65.9375 80.9219 64.3594 78.1719 63.2344 74.8906C 62.1094 71.6094 61.5469 67.8594 61.5469 63.6406C 61.5469 59.3906 62.0625 55.5938 63.0938 52.25C 64.125 48.9062 65.5781 46.0781 67.4531 43.7656C 69.3281 41.4219 71.5625 39.6406 74.1562 38.4219C 76.7812 37.2031 79.6719 36.5938 82.8281 36.5938C 85.9219 36.5938 88.7031 37.1562 91.1719 38.2812C 93.6406 39.375 95.7344 40.9375 97.4531 42.9688C 99.1719 44.9688 100.484 47.3906 101.391 50.2344C 102.328 53.0469 102.797 56.1719 102.797 59.6094L 102.797 64.9062L 70.3594 64.9062C 70.5156 70.9375 71.7812 75.375 74.1562 78.2188C 76.5625 81.0625 80.125 82.4844 84.8438 82.4844C 86.4375 82.4844 87.9062 82.4062 89.25 82.25C 90.625 82.0938 91.9375 81.875 93.1875 81.5938C 94.4688 81.2812 95.7031 80.9062 96.8906 80.4688C 98.0781 80 99.2812 79.4844 100.5 78.9219L 100.5 86.5156C 99.25 87.1094 98.0156 87.625 96.7969 88.0625C 95.6094 88.5 94.375 88.8594 93.0938 89.1406C 91.8438 89.4219 90.5312 89.625 89.1562 89.75C 87.8125 89.875 86.3438 89.9375 84.75 89.9375ZM 82.6406 43.6719C 79.0781 43.6719 76.25 44.8906 74.1562 47.3281C 72.0938 49.7656 70.8906 53.3125 70.5469 57.9688L 93.6094 57.9688C 93.6094 55.8438 93.3906 53.9062 92.9531 52.1562C 92.5469 50.375 91.8906 48.8594 90.9844 47.6094C 90.1094 46.3594 88.9844 45.3906 87.6094 44.7031C 86.2344 44.0156 84.5781 43.6719 82.6406 43.6719ZM 155.438 37.5312L 155.438 42.8281L 146.203 44.0938C 147.078 45.1875 147.812 46.5938 148.406 48.3125C 149 50 149.297 51.9219 149.297 54.0781C 149.297 56.4531 148.922 58.6562 148.172 60.6875C 147.453 62.6875 146.344 64.4219 144.844 65.8906C 143.375 67.3594 141.547 68.5156 139.359 69.3594C 137.172 70.1719 134.625 70.5781 131.719 70.5781C 131.031 70.5781 130.344 70.5781 129.656 70.5781C 128.969 70.5469 128.406 70.4844 127.969 70.3906C 127.438 70.7031 126.906 71.0625 126.375 71.4688C 125.875 71.8438 125.406 72.2812 124.969 72.7812C 124.562 73.2812 124.219 73.8438 123.938 74.4688C 123.688 75.0938 123.562 75.7812 123.562 76.5312C 123.562 77.375 123.75 78.0625 124.125 78.5938C 124.5 79.0938 125 79.4844 125.625 79.7656C 126.281 80.0469 127.047 80.2344 127.922 80.3281C 128.797 80.4219 129.719 80.4688 130.688 80.4688L 138.938 80.4688C 141.844 80.4688 144.297 80.8438 146.297 81.5938C 148.297 82.3125 149.922 83.2969 151.172 84.5469C 152.453 85.7969 153.375 87.2812 153.938 89C 154.5 90.6875 154.781 92.4844 154.781 94.3906C 154.781 97.1406 154.266 99.6094 153.234 101.797C 152.234 103.984 150.688 105.828 148.594 107.328C 146.5 108.859 143.844 110.031 140.625 110.844C 137.438 111.656 133.672 112.062 129.328 112.062C 125.984 112.062 123.062 111.734 120.562 111.078C 118.062 110.422 115.984 109.469 114.328 108.219C 112.672 106.969 111.422 105.453 110.578 103.672C 109.766 101.922 109.359 99.9375 109.359 97.7188C 109.359 95.8438 109.656 94.1875 110.25 92.75C 110.875 91.3438 111.703 90.125 112.734 89.0938C 113.766 88.0625 114.953 87.2188 116.297 86.5625C 117.672 85.9062 119.094 85.4062 120.562 85.0625C 119.25 84.4688 118.172 83.5312 117.328 82.25C 116.484 80.9688 116.062 79.5 116.062 77.8438C 116.062 75.9375 116.562 74.2969 117.562 72.9219C 118.562 71.5156 120.141 70.1562 122.297 68.8438C 120.953 68.2812 119.719 67.5156 118.594 66.5469C 117.5 65.5469 116.562 64.4219 115.781 63.1719C 115.031 61.8906 114.438 60.5 114 59C 113.594 57.5 113.391 55.9531 113.391 54.3594C 113.391 51.5781 113.781 49.0938 114.562 46.9062C 115.344 44.7188 116.5 42.8594 118.031 41.3281C 119.562 39.7969 121.469 38.625 123.75 37.8125C 126.031 37 128.688 36.5938 131.719 36.5938C 132.875 36.5938 134.062 36.6875 135.281 36.875C 136.531 37.0312 137.578 37.25 138.422 37.5312L 155.438 37.5312ZM 117.422 97.4375C 117.422 98.5938 117.625 99.6719 118.031 100.672C 118.438 101.672 119.094 102.531 120 103.25C 120.938 103.969 122.156 104.531 123.656 104.938C 125.188 105.375 127.078 105.594 129.328 105.594C 135.141 105.594 139.484 104.688 142.359 102.875C 145.266 101.094 146.719 98.5156 146.719 95.1406C 146.719 93.7031 146.531 92.5312 146.156 91.625C 145.781 90.7188 145.156 90 144.281 89.4688C 143.438 88.9688 142.312 88.625 140.906 88.4375C 139.5 88.25 137.781 88.1562 135.75 88.1562L 127.5 88.1562C 126.406 88.1562 125.266 88.2812 124.078 88.5312C 122.891 88.7812 121.797 89.25 120.797 89.9375C 119.828 90.625 119.016 91.5625 118.359 92.75C 117.734 93.9688 117.422 95.5312 117.422 97.4375ZM 121.734 54.0781C 121.734 57.6719 122.578 60.3438 124.266 62.0938C 125.953 63.8438 128.344 64.7188 131.438 64.7188C 134.562 64.7188 136.922 63.8594 138.516 62.1406C 140.141 60.3906 140.953 57.6562 140.953 53.9375C 140.953 50.0938 140.125 47.2656 138.469 45.4531C 136.844 43.6406 134.469 42.7344 131.344 42.7344C 128.25 42.7344 125.875 43.6719 124.219 45.5469C 122.562 47.4219 121.734 50.2656 121.734 54.0781ZM 185.906 89.9375C 182.469 89.9375 179.328 89.3594 176.484 88.2031C 173.641 87.0469 171.188 85.3594 169.125 83.1406C 167.094 80.9219 165.516 78.1719 164.391 74.8906C 163.266 71.6094 162.703 67.8594 162.703 63.6406C 162.703 59.3906 163.219 55.5938 164.25 52.25C 165.281 48.9062 166.734 46.0781 168.609 43.7656C 170.484 41.4219 172.719 39.6406 175.312 38.4219C 177.938 37.2031 180.828 36.5938 183.984 36.5938C 187.078 36.5938 189.859 37.1562 192.328 38.2812C 194.797 39.375 196.891 40.9375 198.609 42.9688C 200.328 44.9688 201.641 47.3906 202.547 50.2344C 203.484 53.0469 203.953 56.1719 203.953 59.6094L 203.953 64.9062L 171.516 64.9062C 171.672 70.9375 172.938 75.375 175.312 78.2188C 177.719 81.0625 181.281 82.4844 186 82.4844C 187.594 82.4844 189.062 82.4062 190.406 82.25C 191.781 82.0938 193.094 81.875 194.344 81.5938C 195.625 81.2812 196.859 80.9062 198.047 80.4688C 199.234 80 200.438 79.4844 201.656 78.9219L 201.656 86.5156C 200.406 87.1094 199.172 87.625 197.953 88.0625C 196.766 88.5 195.531 88.8594 194.25 89.1406C 193 89.4219 191.688 89.625 190.312 89.75C 188.969 89.875 187.5 89.9375 185.906 89.9375ZM 183.797 43.6719C 180.234 43.6719 177.406 44.8906 175.312 47.3281C 173.25 49.7656 172.047 53.3125 171.703 57.9688L 194.766 57.9688C 194.766 55.8438 194.547 53.9062 194.109 52.1562C 193.703 50.375 193.047 48.8594 192.141 47.6094C 191.266 46.3594 190.141 45.3906 188.766 44.7031C 187.391 44.0156 185.734 43.6719 183.797 43.6719ZM 239.203 36.5938C 240.109 36.5938 241.125 36.6406 242.25 36.7344C 243.375 36.7969 244.344 36.9062 245.156 37.0625L 244.031 44.9375C 243.156 44.7812 242.25 44.6562 241.312 44.5625C 240.406 44.4375 239.547 44.375 238.734 44.375C 236.766 44.375 234.969 44.7812 233.344 45.5938C 231.719 46.375 230.312 47.5156 229.125 49.0156C 227.969 50.4844 227.062 52.2656 226.406 54.3594C 225.781 56.4219 225.469 58.7188 225.469 61.25L 225.469 89L 216.938 89L 216.938 37.5312L 223.875 37.5312L 224.906 46.9531L 225.281 46.9531C 226.062 45.6094 226.891 44.3125 227.766 43.0625C 228.672 41.8125 229.672 40.7188 230.766 39.7812C 231.891 38.8125 233.141 38.0469 234.516 37.4844C 235.891 36.8906 237.453 36.5938 239.203 36.5938ZM 316.922 89L 316.922 55.8594C 316.922 51.7969 316.141 48.75 314.578 46.7188C 313.016 44.6875 310.594 43.6719 307.312 43.6719C 305.031 43.6719 303.094 44.0469 301.5 44.7969C 299.906 45.5156 298.594 46.5938 297.562 48.0312C 296.562 49.4375 295.828 51.2031 295.359 53.3281C 294.891 55.4219 294.656 57.8438 294.656 60.5938L 294.656 89L 286.078 89L 286.078 55.8594C 286.078 51.7969 285.297 48.75 283.734 46.7188C 282.203 44.6875 279.797 43.6719 276.516 43.6719C 274.109 43.6719 272.094 44.0781 270.469 44.8906C 268.844 45.7031 267.531 46.9062 266.531 48.5C 265.562 50.0938 264.859 52.0469 264.422 54.3594C 264.016 56.6719 263.812 59.3281 263.812 62.3281L 263.812 89L 255.281 89L 255.281 37.5312L 262.219 37.5312L 263.438 44.4688L 263.906 44.4688C 264.656 43.125 265.547 41.9688 266.578 41C 267.609 40 268.734 39.1719 269.953 38.5156C 271.203 37.8594 272.516 37.375 273.891 37.0625C 275.297 36.75 276.719 36.5938 278.156 36.5938C 281.906 36.5938 285.016 37.2812 287.484 38.6562C 289.984 40.0312 291.828 42.1875 293.016 45.125L 293.391 45.125C 294.203 43.6562 295.172 42.3906 296.297 41.3281C 297.453 40.2656 298.703 39.3906 300.047 38.7031C 301.422 37.9844 302.859 37.4531 304.359 37.1094C 305.859 36.7656 307.391 36.5938 308.953 36.5938C 314.422 36.5938 318.531 38.0938 321.281 41.0938C 324.062 44.0625 325.453 48.8281 325.453 55.3906L 325.453 89L 316.922 89ZM 370.359 89L 368.625 81.875L 368.25 81.875C 367.219 83.2812 366.188 84.5 365.156 85.5312C 364.125 86.5312 363 87.3594 361.781 88.0156C 360.562 88.6719 359.203 89.1562 357.703 89.4688C 356.203 89.7812 354.469 89.9375 352.5 89.9375C 350.344 89.9375 348.359 89.625 346.547 89C 344.734 88.4062 343.156 87.4844 341.812 86.2344C 340.5 84.9531 339.469 83.3594 338.719 81.4531C 337.969 79.5156 337.594 77.2344 337.594 74.6094C 337.594 69.4844 339.391 65.5469 342.984 62.7969C 346.609 60.0469 352.109 58.5469 359.484 58.2969L 368.109 57.9688L 368.109 54.7344C 368.109 52.6406 367.875 50.8906 367.406 49.4844C 366.969 48.0781 366.312 46.9531 365.438 46.1094C 364.594 45.2344 363.531 44.6094 362.25 44.2344C 361 43.8594 359.562 43.6719 357.938 43.6719C 355.344 43.6719 352.922 44.0469 350.672 44.7969C 348.453 45.5469 346.312 46.4531 344.25 47.5156L 341.25 41.0938C 343.562 39.8438 346.141 38.7812 348.984 37.9062C 351.828 37.0312 354.812 36.5938 357.938 36.5938C 361.125 36.5938 363.875 36.9219 366.188 37.5781C 368.531 38.2031 370.453 39.2188 371.953 40.625C 373.484 42 374.625 43.7656 375.375 45.9219C 376.125 48.0781 376.5 50.6875 376.5 53.75L 376.5 89L 370.359 89ZM 354.703 83.0469C 356.609 83.0469 358.375 82.75 360 82.1562C 361.625 81.5625 363.031 80.6719 364.219 79.4844C 365.406 78.2656 366.328 76.75 366.984 74.9375C 367.672 73.0938 368.016 70.9375 368.016 68.4688L 368.016 63.8281L 361.312 64.1562C 358.5 64.2812 356.141 64.5938 354.234 65.0938C 352.328 65.5938 350.797 66.2969 349.641 67.2031C 348.516 68.0781 347.703 69.1562 347.203 70.4375C 346.703 71.6875 346.453 73.1094 346.453 74.7031C 346.453 77.5781 347.203 79.6875 348.703 81.0312C 350.234 82.375 352.234 83.0469 354.703 83.0469ZM 414.609 36.5938C 415.516 36.5938 416.531 36.6406 417.656 36.7344C 418.781 36.7969 419.75 36.9062 420.562 37.0625L 419.438 44.9375C 418.562 44.7812 417.656 44.6562 416.719 44.5625C 415.812 44.4375 414.953 44.375 414.141 44.375C 412.172 44.375 410.375 44.7812 408.75 45.5938C 407.125 46.375 405.719 47.5156 404.531 49.0156C 403.375 50.4844 402.469 52.2656 401.812 54.3594C 401.188 56.4219 400.875 58.7188 400.875 61.25L 400.875 89L 392.344 89L 392.344 37.5312L 399.281 37.5312L 400.312 46.9531L 400.688 46.9531C 401.469 45.6094 402.297 44.3125 403.172 43.0625C 404.078 41.8125 405.078 40.7188 406.172 39.7812C 407.297 38.8125 408.547 38.0469 409.922 37.4844C 411.297 36.8906 412.859 36.5938 414.609 36.5938ZM 438.562 62.4219L 444.891 54.4531L 458.625 37.5312L 468.516 37.5312L 449.719 59.7969L 469.781 89L 459.984 89L 444.234 65.375L 439.125 69.2188L 439.125 89L 430.688 89L 430.688 16.0625L 439.125 16.0625L 439.125 49.5312L 438.375 62.4219L 438.562 62.4219Z"/>
<path id="path2_fill" d="M 27.8438 89.9375C 24.6875 89.9375 21.7344 89.4531 18.9844 88.4844C 16.2344 87.4844 13.8438 85.9219 11.8125 83.7969C 9.78125 81.6406 8.1875 78.9062 7.03125 75.5938C 5.875 72.25 5.29688 68.2344 5.29688 63.5469C 5.29688 58.6406 5.89062 54.4844 7.07812 51.0781C 8.26562 47.6406 9.89062 44.8594 11.9531 42.7344C 14.0469 40.5781 16.4844 39.0156 19.2656 38.0469C 22.0469 37.0781 25.0312 36.5938 28.2188 36.5938C 30.6562 36.5938 33.0312 36.8594 35.3438 37.3906C 37.6875 37.9219 39.6406 38.5781 41.2031 39.3594L 38.6719 46.5781C 37.9531 46.2656 37.1562 45.9688 36.2812 45.6875C 35.4062 45.375 34.5 45.1094 33.5625 44.8906C 32.625 44.6406 31.7031 44.4531 30.7969 44.3281C 29.8906 44.1719 29.0312 44.0938 28.2188 44.0938C 23.3125 44.0938 19.7344 45.6719 17.4844 48.8281C 15.2344 51.9531 14.1094 56.8281 14.1094 63.4531C 14.1094 70.0469 15.2344 74.875 17.4844 77.9375C 19.7656 80.9688 23.2188 82.4844 27.8438 82.4844C 30.375 82.4844 32.6562 82.2031 34.6875 81.6406C 36.75 81.0469 38.625 80.3594 40.3125 79.5781L 40.3125 87.1719C 38.625 88.0781 36.8125 88.7656 34.875 89.2344C 32.9688 89.7031 30.625 89.9375 27.8438 89.9375ZM 97.4269 63.1719C 97.4269 67.4531 96.8956 71.2656 95.8331 74.6094C 94.8019 77.9219 93.3019 80.7188 91.3331 83C 89.3956 85.25 87.0363 86.9688 84.255 88.1562C 81.4738 89.3438 78.3488 89.9375 74.88 89.9375C 71.6613 89.9375 68.6925 89.3438 65.9738 88.1562C 63.255 86.9688 60.8956 85.25 58.8956 83C 56.9269 80.7188 55.38 77.9219 54.255 74.6094C 53.1613 71.2656 52.6144 67.4531 52.6144 63.1719C 52.6144 58.9219 53.13 55.1562 54.1613 51.875C 55.2238 48.5625 56.7238 45.7812 58.6613 43.5312C 60.5988 41.25 62.9581 39.5312 65.7394 38.375C 68.5519 37.1875 71.6925 36.5938 75.1613 36.5938C 78.38 36.5938 81.3488 37.1875 84.0675 38.375C 86.7863 39.5312 89.13 41.25 91.0988 43.5312C 93.0988 45.7812 94.6456 48.5625 95.7394 51.875C 96.8644 55.1562 97.4269 58.9219 97.4269 63.1719ZM 61.4269 63.1719C 61.4269 69.7031 62.4894 74.625 64.6144 77.9375C 66.7706 81.2188 70.255 82.8594 75.0675 82.8594C 79.88 82.8594 83.3331 81.2188 85.4269 77.9375C 87.5519 74.625 88.6144 69.7031 88.6144 63.1719C 88.6144 56.6406 87.5363 51.7656 85.38 48.5469C 83.255 45.2969 79.7863 43.6719 74.9738 43.6719C 70.1613 43.6719 66.6925 45.2969 64.5675 48.5469C 62.4738 51.7656 61.4269 56.6406 61.4269 63.1719ZM 145.916 89L 145.916 55.8594C 145.916 51.7969 145.088 48.75 143.432 46.7188C 141.807 44.6875 139.244 43.6719 135.744 43.6719C 133.213 43.6719 131.088 44.0781 129.369 44.8906C 127.651 45.7031 126.26 46.9062 125.198 48.5C 124.166 50.0938 123.416 52.0469 122.948 54.3594C 122.51 56.6719 122.291 59.3281 122.291 62.3281L 122.291 89L 113.76 89L 113.76 37.5312L 120.698 37.5312L 121.916 44.4688L 122.385 44.4688C 123.166 43.125 124.088 41.9688 125.151 41C 126.244 40 127.432 39.1719 128.713 38.5156C 129.994 37.8594 131.354 37.375 132.791 37.0625C 134.229 36.75 135.698 36.5938 137.198 36.5938C 142.916 36.5938 147.213 38.0938 150.088 41.0938C 152.994 44.0625 154.448 48.8281 154.448 55.3906L 154.448 89L 145.916 89ZM 203.968 74.8906C 203.968 77.3906 203.515 79.5781 202.609 81.4531C 201.702 83.3281 200.39 84.9062 198.671 86.1875C 196.984 87.4375 194.937 88.375 192.531 89C 190.124 89.625 187.421 89.9375 184.421 89.9375C 181.015 89.9375 178.093 89.6562 175.656 89.0938C 173.218 88.5625 171.077 87.7656 169.234 86.7031L 169.234 78.9219C 170.202 79.4219 171.281 79.9219 172.468 80.4219C 173.656 80.8906 174.906 81.3125 176.218 81.6875C 177.531 82.0625 178.874 82.375 180.249 82.625C 181.656 82.8438 183.046 82.9531 184.421 82.9531C 186.452 82.9531 188.171 82.7812 189.577 82.4375C 191.015 82.0938 192.171 81.6094 193.046 80.9844C 193.952 80.3281 194.609 79.5469 195.015 78.6406C 195.421 77.7031 195.624 76.6719 195.624 75.5469C 195.624 74.5781 195.468 73.7031 195.156 72.9219C 194.843 72.1406 194.265 71.375 193.421 70.625C 192.609 69.8438 191.484 69.0625 190.046 68.2812C 188.609 67.5 186.765 66.625 184.515 65.6562C 182.265 64.6875 180.234 63.7344 178.421 62.7969C 176.64 61.8594 175.124 60.8125 173.874 59.6562C 172.624 58.5 171.656 57.1719 170.968 55.6719C 170.312 54.1406 169.984 52.3281 169.984 50.2344C 169.984 48.0469 170.406 46.1094 171.249 44.4219C 172.124 42.7031 173.343 41.2656 174.906 40.1094C 176.468 38.9531 178.343 38.0781 180.531 37.4844C 182.718 36.8906 185.156 36.5938 187.843 36.5938C 190.874 36.5938 193.64 36.9219 196.14 37.5781C 198.671 38.2344 201.062 39.0938 203.312 40.1562L 200.359 47.0469C 198.327 46.1406 196.234 45.3594 194.077 44.7031C 191.952 44.0156 189.781 43.6719 187.562 43.6719C 184.374 43.6719 182.015 44.2031 180.484 45.2656C 178.952 46.2969 178.187 47.7812 178.187 49.7188C 178.187 50.8125 178.359 51.7656 178.702 52.5781C 179.077 53.3906 179.702 54.1562 180.577 54.875C 181.452 55.5938 182.624 56.3281 184.093 57.0781C 185.562 57.7969 187.39 58.6094 189.577 59.5156C 191.827 60.4531 193.827 61.3906 195.577 62.3281C 197.359 63.2656 198.874 64.3281 200.124 65.5156C 201.374 66.6719 202.327 68 202.984 69.5C 203.64 71 203.968 72.7969 203.968 74.8906ZM 252.692 89L 251.426 82.1094L 250.958 82.1094C 250.176 83.4531 249.239 84.625 248.145 85.625C 247.083 86.5938 245.911 87.4062 244.629 88.0625C 243.348 88.6875 241.989 89.1562 240.551 89.4688C 239.114 89.7812 237.645 89.9375 236.145 89.9375C 233.301 89.9375 230.801 89.5781 228.645 88.8594C 226.489 88.1406 224.692 87.0156 223.254 85.4844C 221.817 83.9531 220.723 82 219.973 79.625C 219.254 77.25 218.895 74.4219 218.895 71.1406L 218.895 37.5312L 227.426 37.5312L 227.426 70.6719C 227.426 74.7344 228.254 77.7812 229.911 79.8125C 231.567 81.8438 234.129 82.8594 237.598 82.8594C 240.129 82.8594 242.254 82.4531 243.973 81.6406C 245.692 80.8281 247.067 79.6406 248.098 78.0781C 249.161 76.4844 249.911 74.5312 250.348 72.2188C 250.817 69.9062 251.051 67.25 251.051 64.25L 251.051 37.5312L 259.583 37.5312L 259.583 89L 252.692 89ZM 287.306 89L 278.775 89L 278.775 16.0625L 287.306 16.0625L 287.306 89ZM 322.061 82.9531C 322.624 82.9531 323.249 82.9219 323.936 82.8594C 324.655 82.7969 325.342 82.7188 325.999 82.625C 326.655 82.5312 327.249 82.4219 327.78 82.2969C 328.342 82.1719 328.764 82.0625 329.046 81.9688L 329.046 88.4375C 328.639 88.625 328.124 88.8125 327.499 89C 326.874 89.1875 326.186 89.3438 325.436 89.4688C 324.686 89.625 323.905 89.7344 323.092 89.7969C 322.28 89.8906 321.483 89.9375 320.702 89.9375C 318.764 89.9375 316.967 89.6875 315.311 89.1875C 313.655 88.6875 312.217 87.8281 310.999 86.6094C 309.811 85.3906 308.874 83.75 308.186 81.6875C 307.499 79.5938 307.155 76.9688 307.155 73.8125L 307.155 43.9531L 299.889 43.9531L 299.889 40.1562L 307.155 36.5L 310.811 25.7188L 315.733 25.7188L 315.733 37.5312L 328.671 37.5312L 328.671 43.9531L 315.733 43.9531L 315.733 73.8125C 315.733 76.8438 316.217 79.125 317.186 80.6562C 318.186 82.1875 319.811 82.9531 322.061 82.9531ZM 350.441 89L 341.91 89L 341.91 37.5312L 350.441 37.5312L 350.441 89ZM 341.254 23.6094C 341.254 21.7344 341.723 20.375 342.66 19.5312C 343.629 18.6875 344.816 18.2656 346.223 18.2656C 346.91 18.2656 347.551 18.375 348.144 18.5938C 348.769 18.7812 349.301 19.0938 349.738 19.5312C 350.207 19.9687 350.566 20.5312 350.816 21.2188C 351.098 21.875 351.238 22.6719 351.238 23.6094C 351.238 25.4219 350.738 26.7813 349.738 27.6875C 348.769 28.5625 347.598 29 346.223 29C 344.816 29 343.629 28.5625 342.66 27.6875C 341.723 26.8125 341.254 25.4531 341.254 23.6094ZM 401.79 89L 401.79 55.8594C 401.79 51.7969 400.962 48.75 399.306 46.7188C 397.681 44.6875 395.118 43.6719 391.618 43.6719C 389.087 43.6719 386.962 44.0781 385.243 44.8906C 383.524 45.7031 382.134 46.9062 381.071 48.5C 380.04 50.0938 379.29 52.0469 378.821 54.3594C 378.384 56.6719 378.165 59.3281 378.165 62.3281L 378.165 89L 369.634 89L 369.634 37.5312L 376.571 37.5312L 377.79 44.4688L 378.259 44.4688C 379.04 43.125 379.962 41.9688 381.024 41C 382.118 40 383.306 39.1719 384.587 38.5156C 385.868 37.8594 387.228 37.375 388.665 37.0625C 390.103 36.75 391.571 36.5938 393.071 36.5938C 398.79 36.5938 403.087 38.0938 405.962 41.0938C 408.868 44.0625 410.321 48.8281 410.321 55.3906L 410.321 89L 401.79 89ZM 468.701 37.5312L 468.701 42.8281L 459.467 44.0938C 460.342 45.1875 461.076 46.5938 461.67 48.3125C 462.264 50 462.561 51.9219 462.561 54.0781C 462.561 56.4531 462.186 58.6562 461.436 60.6875C 460.717 62.6875 459.608 64.4219 458.108 65.8906C 456.639 67.3594 454.811 68.5156 452.623 69.3594C 450.436 70.1719 447.889 70.5781 444.983 70.5781C 444.295 70.5781 443.608 70.5781 442.92 70.5781C 442.233 70.5469 441.67 70.4844 441.233 70.3906C 440.701 70.7031 440.17 71.0625 439.639 71.4688C 439.139 71.8438 438.67 72.2812 438.233 72.7812C 437.826 73.2812 437.483 73.8438 437.201 74.4688C 436.951 75.0938 436.826 75.7812 436.826 76.5312C 436.826 77.375 437.014 78.0625 437.389 78.5938C 437.764 79.0938 438.264 79.4844 438.889 79.7656C 439.545 80.0469 440.311 80.2344 441.186 80.3281C 442.061 80.4219 442.983 80.4688 443.951 80.4688L 452.201 80.4688C 455.108 80.4688 457.561 80.8438 459.561 81.5938C 461.561 82.3125 463.186 83.2969 464.436 84.5469C 465.717 85.7969 466.639 87.2812 467.201 89C 467.764 90.6875 468.045 92.4844 468.045 94.3906C 468.045 97.1406 467.529 99.6094 466.498 101.797C 465.498 103.984 463.951 105.828 461.858 107.328C 459.764 108.859 457.108 110.031 453.889 110.844C 450.701 111.656 446.936 112.062 442.592 112.062C 439.248 112.062 436.326 111.734 433.826 111.078C 431.326 110.422 429.248 109.469 427.592 108.219C 425.936 106.969 424.686 105.453 423.842 103.672C 423.029 101.922 422.623 99.9375 422.623 97.7188C 422.623 95.8438 422.92 94.1875 423.514 92.75C 424.139 91.3438 424.967 90.125 425.998 89.0938C 427.029 88.0625 428.217 87.2188 429.561 86.5625C 430.936 85.9062 432.358 85.4062 433.826 85.0625C 432.514 84.4688 431.436 83.5312 430.592 82.25C 429.748 80.9688 429.326 79.5 429.326 77.8438C 429.326 75.9375 429.826 74.2969 430.826 72.9219C 431.826 71.5156 433.404 70.1562 435.561 68.8438C 434.217 68.2812 432.983 67.5156 431.858 66.5469C 430.764 65.5469 429.826 64.4219 429.045 63.1719C 428.295 61.8906 427.701 60.5 427.264 59C 426.858 57.5 426.654 55.9531 426.654 54.3594C 426.654 51.5781 427.045 49.0938 427.826 46.9062C 428.608 44.7188 429.764 42.8594 431.295 41.3281C 432.826 39.7969 434.733 38.625 437.014 37.8125C 439.295 37 441.951 36.5938 444.983 36.5938C 446.139 36.5938 447.326 36.6875 448.545 36.875C 449.795 37.0312 450.842 37.25 451.686 37.5312L 468.701 37.5312ZM 430.686 97.4375C 430.686 98.5938 430.889 99.6719 431.295 100.672C 431.701 101.672 432.358 102.531 433.264 103.25C 434.201 103.969 435.42 104.531 436.92 104.938C 438.451 105.375 440.342 105.594 442.592 105.594C 448.404 105.594 452.748 104.688 455.623 102.875C 458.529 101.094 459.983 98.5156 459.983 95.1406C 459.983 93.7031 459.795 92.5312 459.42 91.625C 459.045 90.7188 458.42 90 457.545 89.4688C 456.701 88.9688 455.576 88.625 454.17 88.4375C 452.764 88.25 451.045 88.1562 449.014 88.1562L 440.764 88.1562C 439.67 88.1562 438.529 88.2812 437.342 88.5312C 436.154 88.7812 435.061 89.25 434.061 89.9375C 433.092 90.625 432.279 91.5625 431.623 92.75C 430.998 93.9688 430.686 95.5312 430.686 97.4375ZM 434.998 54.0781C 434.998 57.6719 435.842 60.3438 437.529 62.0938C 439.217 63.8438 441.608 64.7188 444.701 64.7188C 447.826 64.7188 450.186 63.8594 451.779 62.1406C 453.404 60.3906 454.217 57.6562 454.217 53.9375C 454.217 50.0938 453.389 47.2656 451.733 45.4531C 450.108 43.6406 447.733 42.7344 444.608 42.7344C 441.514 42.7344 439.139 43.6719 437.483 45.5469C 435.826 47.4219 434.998 50.2656 434.998 54.0781Z"/>
</defs>
</svg>
